<svg xmlns="http://www.w3.org/2000/svg" viewBox="0 0 150 48" fill="none">
  <rect width="150" height="48" rx="8" fill="#1A1033"/>

  <!-- Striding Man — homem que caminha (original) -->
  <rect x="8" y="8" width="32" height="32" rx="6" fill="#1A1033" stroke="#FFFFFF" stroke-width="1"/>
  <g transform="translate(12, 9) scale(1.15)" fill="#FFFFFF">
    <path d="M18 14c0-2 1-4 3-4s3 2 3 4v2l2 10-1 12h-2l-1-8-2 8h-2l-1-12 2-10v-2z"/>
    <path opacity="0.95" d="M14 26l-4 8-2-1 3-9z"/>
    <path d="M17 36l2 6h2l-1-7 2-1 1 8h2l-1-9z"/>
    <ellipse cx="21" cy="7" rx="5" ry="1.2"/>
    <rect x="18.5" y="7" width="5" height="4" rx="0.8"/>
    <circle cx="21" cy="12.5" r="2.2"/>
    <path d="M24 16l3-2 1 1-2 2z"/>
    <path stroke="#FFFFFF" stroke-width="1.3" stroke-linecap="round" d="M28 15v22" fill="none"/>
    <circle cx="28" cy="38" r="1.2"/>
  </g>

  <!-- Nome em caixa normal -->
  <text x="48" y="22" font-family="Georgia,serif" font-size="11" font-weight="600" fill="#FFFFFF">Johnie</text>
  <text x="48" y="36" font-family="Georgia,serif" font-size="11" font-weight="600" fill="#FFFFFF">Walker</text>
</svg>
